<svg width="29" height="29" viewBox="0 0 29 29" fill="none" xmlns="http://www.w3.org/2000/svg">
<path d="M10.3333 27.6673V21.0007C10.3333 19.7433 10.3333 19.1153 9.94267 18.7247C9.552 18.334 8.924 18.334 7.66667 18.334H7C5.11333 18.334 4.17067 18.334 3.58667 18.9207C3 19.506 3 20.4487 3 22.334V27.6673H10.3333ZM10.3333 27.6673H18.3333M10.3333 27.6673V19.6673C10.3333 17.782 10.3333 16.8393 10.92 16.254C11.504 15.6673 12.4467 15.6673 14.3333 15.6673C16.22 15.6673 17.1613 15.6673 17.7467 16.254C18.3333 16.8393 18.3333 17.782 18.3333 19.6673V27.6673M18.3333 27.6673H25.6667V25.0007C25.6667 23.1153 25.6667 22.1727 25.08 21.5873C24.4947 21.0007 23.552 21.0007 21.6667 21.0007H21C19.7427 21.0007 19.1147 21.0007 18.724 21.3913C18.3333 21.782 18.3333 22.41 18.3333 23.6673V27.6673ZM1 27.6673H27.6667M15.2547 1.77133L16.1933 3.66467C16.273 3.80653 16.3815 3.93005 16.512 4.02722C16.6425 4.12438 16.7919 4.19302 16.9507 4.22867L18.652 4.51267C19.74 4.69533 19.996 5.49133 19.212 6.27667L17.8893 7.61C17.7734 7.74126 17.6883 7.8968 17.6403 8.06523C17.5923 8.23365 17.5827 8.41068 17.612 8.58333L17.9907 10.234C18.2893 11.5407 17.6013 12.046 16.4547 11.3633L14.86 10.4113C14.6969 10.3267 14.5158 10.2825 14.332 10.2825C14.1482 10.2825 13.9671 10.3267 13.804 10.4113L12.2093 11.3633C11.068 12.046 10.3747 11.5353 10.6733 10.234L11.052 8.58333C11.0813 8.41068 11.0717 8.23365 11.0237 8.06523C10.9757 7.8968 10.8906 7.74126 10.7747 7.61L9.45333 6.27667C8.67467 5.49133 8.92533 4.69533 10.0133 4.51267L11.7133 4.22867C11.8712 4.19218 12.0197 4.12303 12.1492 4.02566C12.2787 3.92829 12.3864 3.80486 12.4653 3.66333L13.404 1.77C13.916 0.743333 14.748 0.743333 15.2547 1.77" stroke="#2E2A27" stroke-width="2" stroke-linecap="round" stroke-linejoin="round"/>
</svg>
